<mxfile host="app.diagrams.net" agent="Mozilla/5.0 (Windows NT 10.0; Win64; x64) AppleWebKit/537.36 (KHTML, like Gecko) Chrome/135.0.0.0 Safari/537.36" version="26.2.14">
  <diagram name="PÃ¡gina-1" id="umQ7oc8jBbci0mtQ6DZ7">
    <mxGraphModel dx="1358" dy="5390" grid="1" gridSize="10" guides="1" tooltips="1" connect="1" arrows="1" fold="1" page="1" pageScale="1" pageWidth="3300" pageHeight="4681" math="0" shadow="0">
      <root>
        <mxCell id="0" />
        <mxCell id="1" parent="0" />
        <mxCell id="JWjJY-OHD2N-0izD8Oz3-13" style="edgeStyle=orthogonalEdgeStyle;rounded=0;orthogonalLoop=1;jettySize=auto;html=1;entryX=0;entryY=0.5;entryDx=0;entryDy=0;endArrow=none;startFill=0;" edge="1" parent="1" source="JWjJY-OHD2N-0izD8Oz3-1" target="JWjJY-OHD2N-0izD8Oz3-12">
          <mxGeometry relative="1" as="geometry" />
        </mxCell>
        <mxCell id="JWjJY-OHD2N-0izD8Oz3-1" value="usarios" style="rounded=0;whiteSpace=wrap;html=1;" vertex="1" parent="1">
          <mxGeometry x="100" y="-30" width="120" height="60" as="geometry" />
        </mxCell>
        <mxCell id="JWjJY-OHD2N-0izD8Oz3-10" style="edgeStyle=orthogonalEdgeStyle;rounded=0;orthogonalLoop=1;jettySize=auto;html=1;entryX=0;entryY=0.5;entryDx=0;entryDy=0;endArrow=none;startFill=0;" edge="1" parent="1" source="JWjJY-OHD2N-0izD8Oz3-2" target="JWjJY-OHD2N-0izD8Oz3-9">
          <mxGeometry relative="1" as="geometry" />
        </mxCell>
        <mxCell id="JWjJY-OHD2N-0izD8Oz3-20" style="edgeStyle=orthogonalEdgeStyle;rounded=0;orthogonalLoop=1;jettySize=auto;html=1;endArrow=none;startFill=0;" edge="1" parent="1" source="JWjJY-OHD2N-0izD8Oz3-2" target="JWjJY-OHD2N-0izD8Oz3-19">
          <mxGeometry relative="1" as="geometry" />
        </mxCell>
        <mxCell id="JWjJY-OHD2N-0izD8Oz3-2" value="billeteras" style="rounded=0;whiteSpace=wrap;html=1;" vertex="1" parent="1">
          <mxGeometry x="530" y="-30" width="120" height="60" as="geometry" />
        </mxCell>
        <mxCell id="JWjJY-OHD2N-0izD8Oz3-6" value="" style="edgeStyle=orthogonalEdgeStyle;rounded=0;orthogonalLoop=1;jettySize=auto;html=1;endArrow=none;startFill=0;" edge="1" parent="1" source="JWjJY-OHD2N-0izD8Oz3-3" target="JWjJY-OHD2N-0izD8Oz3-23">
          <mxGeometry relative="1" as="geometry">
            <mxPoint x="1030" y="110" as="targetPoint" />
          </mxGeometry>
        </mxCell>
        <mxCell id="JWjJY-OHD2N-0izD8Oz3-3" value="beneficios" style="rounded=0;whiteSpace=wrap;html=1;" vertex="1" parent="1">
          <mxGeometry x="970" y="-30" width="120" height="60" as="geometry" />
        </mxCell>
        <mxCell id="JWjJY-OHD2N-0izD8Oz3-9" value="tiene" style="rhombus;whiteSpace=wrap;html=1;" vertex="1" parent="1">
          <mxGeometry x="770" y="-40" width="80" height="80" as="geometry" />
        </mxCell>
        <mxCell id="JWjJY-OHD2N-0izD8Oz3-11" style="edgeStyle=orthogonalEdgeStyle;rounded=0;orthogonalLoop=1;jettySize=auto;html=1;entryX=0;entryY=0.5;entryDx=0;entryDy=0;endArrow=none;startFill=0;" edge="1" parent="1" source="JWjJY-OHD2N-0izD8Oz3-9" target="JWjJY-OHD2N-0izD8Oz3-3">
          <mxGeometry relative="1" as="geometry">
            <mxPoint x="970" as="targetPoint" />
            <Array as="points" />
          </mxGeometry>
        </mxCell>
        <mxCell id="JWjJY-OHD2N-0izD8Oz3-14" style="edgeStyle=orthogonalEdgeStyle;rounded=0;orthogonalLoop=1;jettySize=auto;html=1;exitX=1;exitY=0.5;exitDx=0;exitDy=0;endArrow=none;startFill=0;" edge="1" parent="1" source="JWjJY-OHD2N-0izD8Oz3-12" target="JWjJY-OHD2N-0izD8Oz3-2">
          <mxGeometry relative="1" as="geometry" />
        </mxCell>
        <mxCell id="JWjJY-OHD2N-0izD8Oz3-12" value="seleciona" style="rhombus;whiteSpace=wrap;html=1;" vertex="1" parent="1">
          <mxGeometry x="340" y="-40" width="80" height="80" as="geometry" />
        </mxCell>
        <mxCell id="JWjJY-OHD2N-0izD8Oz3-17" value="&lt;u&gt;DNI&lt;/u&gt;&lt;div&gt;nombre&lt;/div&gt;&lt;div&gt;apellido&lt;/div&gt;&lt;div&gt;telefono&lt;/div&gt;&lt;div&gt;email&lt;/div&gt;&lt;div&gt;contrasena&lt;/div&gt;" style="ellipse;whiteSpace=wrap;html=1;" vertex="1" parent="1">
          <mxGeometry x="90" y="-200" width="140" height="110" as="geometry" />
        </mxCell>
        <mxCell id="JWjJY-OHD2N-0izD8Oz3-18" style="edgeStyle=orthogonalEdgeStyle;rounded=0;orthogonalLoop=1;jettySize=auto;html=1;endArrow=none;startFill=0;" edge="1" parent="1" target="JWjJY-OHD2N-0izD8Oz3-17">
          <mxGeometry relative="1" as="geometry">
            <mxPoint x="160.52" y="-30" as="sourcePoint" />
            <mxPoint x="159.48000000000005" y="-89.44999999999982" as="targetPoint" />
            <Array as="points">
              <mxPoint x="161" y="-60" />
              <mxPoint x="160" y="-60" />
            </Array>
          </mxGeometry>
        </mxCell>
        <mxCell id="JWjJY-OHD2N-0izD8Oz3-19" value="&lt;div&gt;&lt;u&gt;idBilletera&lt;/u&gt;&lt;/div&gt;&lt;div&gt;nombre&lt;/div&gt;&lt;div&gt;interes_anual&lt;/div&gt;" style="ellipse;whiteSpace=wrap;html=1;" vertex="1" parent="1">
          <mxGeometry x="530" y="-180" width="120" height="80" as="geometry" />
        </mxCell>
        <mxCell id="JWjJY-OHD2N-0izD8Oz3-21" value="&lt;div&gt;&lt;u&gt;IdBeneficio&lt;/u&gt;&lt;/div&gt;&lt;div&gt;tipo_beneficio&lt;/div&gt;&lt;div&gt;porcentaje_descuento&lt;/div&gt;dias_semana" style="ellipse;whiteSpace=wrap;html=1;" vertex="1" parent="1">
          <mxGeometry x="970" y="-160" width="130" height="90" as="geometry" />
        </mxCell>
        <mxCell id="JWjJY-OHD2N-0izD8Oz3-22" style="edgeStyle=orthogonalEdgeStyle;rounded=0;orthogonalLoop=1;jettySize=auto;html=1;entryX=0.425;entryY=0.99;entryDx=0;entryDy=0;entryPerimeter=0;endArrow=none;startFill=0;" edge="1" parent="1" source="JWjJY-OHD2N-0izD8Oz3-3" target="JWjJY-OHD2N-0izD8Oz3-21">
          <mxGeometry relative="1" as="geometry" />
        </mxCell>
        <mxCell id="JWjJY-OHD2N-0izD8Oz3-25" style="edgeStyle=orthogonalEdgeStyle;rounded=0;orthogonalLoop=1;jettySize=auto;html=1;endArrow=none;startFill=0;" edge="1" parent="1" source="JWjJY-OHD2N-0izD8Oz3-23" target="JWjJY-OHD2N-0izD8Oz3-26">
          <mxGeometry relative="1" as="geometry">
            <mxPoint x="1020" y="260" as="targetPoint" />
          </mxGeometry>
        </mxCell>
        <mxCell id="JWjJY-OHD2N-0izD8Oz3-27" style="edgeStyle=orthogonalEdgeStyle;rounded=0;orthogonalLoop=1;jettySize=auto;html=1;endArrow=none;startFill=0;" edge="1" parent="1" source="JWjJY-OHD2N-0izD8Oz3-23" target="JWjJY-OHD2N-0izD8Oz3-28">
          <mxGeometry relative="1" as="geometry">
            <mxPoint x="1030" y="230" as="targetPoint" />
          </mxGeometry>
        </mxCell>
        <mxCell id="JWjJY-OHD2N-0izD8Oz3-29" style="edgeStyle=orthogonalEdgeStyle;rounded=0;orthogonalLoop=1;jettySize=auto;html=1;endArrow=none;startFill=0;" edge="1" parent="1" source="JWjJY-OHD2N-0izD8Oz3-23" target="JWjJY-OHD2N-0izD8Oz3-30">
          <mxGeometry relative="1" as="geometry">
            <mxPoint x="1160" y="230" as="targetPoint" />
          </mxGeometry>
        </mxCell>
        <mxCell id="JWjJY-OHD2N-0izD8Oz3-31" style="edgeStyle=orthogonalEdgeStyle;rounded=0;orthogonalLoop=1;jettySize=auto;html=1;endArrow=none;startFill=0;" edge="1" parent="1" source="JWjJY-OHD2N-0izD8Oz3-23" target="JWjJY-OHD2N-0izD8Oz3-32">
          <mxGeometry relative="1" as="geometry">
            <mxPoint x="1290" y="290" as="targetPoint" />
          </mxGeometry>
        </mxCell>
        <mxCell id="JWjJY-OHD2N-0izD8Oz3-23" value="D" style="ellipse;whiteSpace=wrap;html=1;aspect=fixed;" vertex="1" parent="1">
          <mxGeometry x="990" y="70" width="80" height="80" as="geometry" />
        </mxCell>
        <mxCell id="JWjJY-OHD2N-0izD8Oz3-24" value="tipos de beneficios" style="text;html=1;align=center;verticalAlign=middle;resizable=0;points=[];autosize=1;strokeColor=none;fillColor=none;" vertex="1" parent="1">
          <mxGeometry x="1070" y="90" width="120" height="30" as="geometry" />
        </mxCell>
        <mxCell id="JWjJY-OHD2N-0izD8Oz3-26" value="reintegros" style="rounded=1;whiteSpace=wrap;html=1;" vertex="1" parent="1">
          <mxGeometry x="730" y="270" width="120" height="60" as="geometry" />
        </mxCell>
        <mxCell id="JWjJY-OHD2N-0izD8Oz3-28" value="descuentos" style="rounded=1;whiteSpace=wrap;html=1;" vertex="1" parent="1">
          <mxGeometry x="910" y="270" width="120" height="60" as="geometry" />
        </mxCell>
        <mxCell id="JWjJY-OHD2N-0izD8Oz3-39" value="" style="edgeStyle=orthogonalEdgeStyle;rounded=0;orthogonalLoop=1;jettySize=auto;html=1;endArrow=none;startFill=0;" edge="1" parent="1" source="JWjJY-OHD2N-0izD8Oz3-30" target="JWjJY-OHD2N-0izD8Oz3-37">
          <mxGeometry relative="1" as="geometry" />
        </mxCell>
        <mxCell id="JWjJY-OHD2N-0izD8Oz3-30" value="cuotas" style="rounded=1;whiteSpace=wrap;html=1;" vertex="1" parent="1">
          <mxGeometry x="1070" y="270" width="120" height="60" as="geometry" />
        </mxCell>
        <mxCell id="JWjJY-OHD2N-0izD8Oz3-40" value="" style="edgeStyle=orthogonalEdgeStyle;rounded=0;orthogonalLoop=1;jettySize=auto;html=1;endArrow=none;startFill=0;" edge="1" parent="1" source="JWjJY-OHD2N-0izD8Oz3-32" target="JWjJY-OHD2N-0izD8Oz3-38">
          <mxGeometry relative="1" as="geometry" />
        </mxCell>
        <mxCell id="JWjJY-OHD2N-0izD8Oz3-32" value="tasa_inversion" style="rounded=1;whiteSpace=wrap;html=1;" vertex="1" parent="1">
          <mxGeometry x="1230" y="270" width="120" height="60" as="geometry" />
        </mxCell>
        <mxCell id="JWjJY-OHD2N-0izD8Oz3-33" value="&lt;br&gt;&lt;div&gt;monto_maximo&lt;/div&gt;&lt;div&gt;porcentaje&lt;/div&gt;&lt;div&gt;dias_disponible&lt;/div&gt;" style="ellipse;whiteSpace=wrap;html=1;" vertex="1" parent="1">
          <mxGeometry x="740" y="370" width="120" height="80" as="geometry" />
        </mxCell>
        <mxCell id="JWjJY-OHD2N-0izD8Oz3-34" style="edgeStyle=orthogonalEdgeStyle;rounded=0;orthogonalLoop=1;jettySize=auto;html=1;entryX=0.562;entryY=1.017;entryDx=0;entryDy=0;entryPerimeter=0;endArrow=none;startFill=0;" edge="1" parent="1" source="JWjJY-OHD2N-0izD8Oz3-33" target="JWjJY-OHD2N-0izD8Oz3-26">
          <mxGeometry relative="1" as="geometry">
            <Array as="points">
              <mxPoint x="800" y="340" />
              <mxPoint x="797" y="340" />
            </Array>
          </mxGeometry>
        </mxCell>
        <mxCell id="JWjJY-OHD2N-0izD8Oz3-36" value="" style="edgeStyle=orthogonalEdgeStyle;rounded=0;orthogonalLoop=1;jettySize=auto;html=1;endArrow=none;startFill=0;" edge="1" parent="1" source="JWjJY-OHD2N-0izD8Oz3-35" target="JWjJY-OHD2N-0izD8Oz3-28">
          <mxGeometry relative="1" as="geometry" />
        </mxCell>
        <mxCell id="JWjJY-OHD2N-0izD8Oz3-35" value="&lt;br&gt;&lt;div&gt;monto_minimo&lt;/div&gt;&lt;div&gt;porcentaje&lt;/div&gt;&lt;div&gt;dias_disponible&lt;/div&gt;" style="ellipse;whiteSpace=wrap;html=1;" vertex="1" parent="1">
          <mxGeometry x="910" y="350" width="120" height="80" as="geometry" />
        </mxCell>
        <mxCell id="JWjJY-OHD2N-0izD8Oz3-37" value="&lt;br&gt;&lt;div&gt;monto_minimo&lt;/div&gt;&lt;div&gt;&lt;span style=&quot;background-color: transparent; color: light-dark(rgb(0, 0, 0), rgb(255, 255, 255));&quot;&gt;cantidad&lt;/span&gt;&lt;/div&gt;&lt;div&gt;&lt;span style=&quot;background-color: transparent; color: light-dark(rgb(0, 0, 0), rgb(255, 255, 255));&quot;&gt;dias_disponible&lt;/span&gt;&lt;/div&gt;" style="ellipse;whiteSpace=wrap;html=1;" vertex="1" parent="1">
          <mxGeometry x="1070" y="350" width="120" height="80" as="geometry" />
        </mxCell>
        <mxCell id="JWjJY-OHD2N-0izD8Oz3-38" value="tasa_anual" style="ellipse;whiteSpace=wrap;html=1;" vertex="1" parent="1">
          <mxGeometry x="1230" y="350" width="120" height="80" as="geometry" />
        </mxCell>
      </root>
    </mxGraphModel>
  </diagram>
</mxfile>
